<?xml version="1.0" encoding="utf-8"?>
<!-- Generator: Adobe Illustrator 19.2.1, SVG Export Plug-In . SVG Version: 6.00 Build 0)  -->
<svg version="1.1" id="layer" xmlns="http://www.w3.org/2000/svg" xmlns:xlink="http://www.w3.org/1999/xlink" x="0px" y="0px"
	 viewBox="0 0 652 652" style="enable-background:new 0 0 652 652;" xml:space="preserve">
<g>
	<path d="M224.6,360.9v-32.3h-28.4v32.3h-14.5v-76.5h14.5v31.5h28.4v-31.5h14.5v76.5H224.6z"/>
	<g>
		<path d="M278.4,339.5h-10.3c-4.6,0-5.9,1.3-5.9,5.5c0,3.9,1.3,5.6,5.6,5.6c4.1,0,7.9-1.4,10.6-2.9
			C278.4,347.8,278.4,339.5,278.4,339.5z M292.5,360.7H281l-1-3.8c-5,3.2-10.7,4.9-16.7,4.9c-10.2,0-14.6-7-14.6-16.6
			c0-11.4,4.9-15.7,16.3-15.7h13.4v-5.9c0-6.2-1.7-8.4-10.7-8.4c-5.1,0-10.6,0.7-15.5,1.7l-1.7-10.7c5.3-1.6,13-2.6,19.2-2.6
			c17.6,0,22.7,6.2,22.7,20.2L292.5,360.7L292.5,360.7z M319.6,361.8c-6,0-14.1-1.4-19.3-3.2l2-10.7c4.7,1.4,10.9,2.4,16.7,2.4
			c6.2,0,7.1-1.4,7.1-5.6c0-3.4-0.7-5.2-9.8-7.3c-13.7-3.3-15.3-6.8-15.3-17.6c0-11.3,4.9-16.2,20.9-16.2c5.2,0,11.9,0.7,16.8,2
			l-1.4,11.1c-4.3-0.8-11-1.6-15.4-1.6c-6.1,0-7.1,1.4-7.1,4.8c0,4.5,0.3,4.8,7.9,6.8c15.6,4.1,17.1,6.2,17.1,17.7
			C339.8,355.2,336.4,361.8,319.6,361.8 M381.5,360.7v-39c0-3-1.3-4.5-4.5-4.5c-3.4,0-9.5,2.1-14.6,4.7v38.8h-14v-78.8l14-2V309
			c6.2-3.2,14.5-5.4,20.4-5.4c9.3,0,12.6,6.6,12.6,16.5v40.5H381.5z"/>
		<path d="M405.8,360.7h14v-55.9h-14L405.8,360.7L405.8,360.7z M405.8,296.8h14v-16.2h-14L405.8,296.8L405.8,296.8z M429.6,305.2
			c0-14,8.2-22.2,27.2-22.2c7.1,0,14.5,0.9,20.8,2.5l-1.6,12.5c-6.2-1.1-13.4-2-18.7-2c-10,0-13.2,3.4-13.2,11.6v29.4
			c0,8.2,3.2,11.6,13.2,11.6c5.3,0,12.5-0.8,18.7-2l1.6,12.5c-6.3,1.6-13.7,2.5-20.8,2.5c-19.1,0-27.2-8.2-27.2-22.2
			C429.6,339.7,429.6,305.2,429.6,305.2z M506.3,315.5c-7.5,0-10.3,3.3-10.3,9.6v15c0,6.3,2.9,9.6,10.3,9.6c7.5,0,10.3-3.3,10.3-9.6
			v-15C516.6,318.9,513.8,315.5,506.3,315.5 M506.3,361.8c-19.2,0-24.3-10.6-24.3-22v-14.1c0-11.5,5.2-22.1,24.3-22.1
			c19.2,0,24.3,10.6,24.3,22.1v14.1C530.6,351.3,525.5,361.8,506.3,361.8 M567.8,316.5c-5.4,2.4-9.8,4.9-14.8,8.2v36.1h-14v-55.9
			h11.8l0.9,6.2c3.1-2.1,9.8-6,14.7-7.4L567.8,316.5L567.8,316.5z M587.5,348.4c3.7,0.8,8.4,1.5,12.4,1.5c5.1,0,7-2.4,7-7.5v-19.8
			c0-4.6-1.7-7.1-6.9-7.1c-4.6,0-9.5,2.3-12.5,5.1V348.4z M621,342.1c0,12.4-5.5,19.8-18.5,19.8c-4.9,0-10.6-0.7-14.9-1.6v23.1
			l-14,2v-80.5h11.1l1.4,4.7c4.9-3.6,10.7-5.9,17.7-5.9c11.3,0,17.2,6.7,17.2,19.4L621,342.1L621,342.1z M76.2,251.9L21,283.7v76.5
			l20.7,12v-76.5l34.5-19.9V251.9z"/>
		<path d="M98.2,251.9v60.9h-22V290l-20.7,12v78.1l20.7,12v-60.7h22v22.6l20.7-12v-78.1L98.2,251.9z"/>
		<path d="M98.2,392.1l55.2-31.8v-76.5l-20.7-12v76.5l-34.5,19.9V392.1z"/>
	</g>
</g>
</svg>
